<mxfile host="app.diagrams.net" modified="2022-04-07T02:44:47.256Z" agent="5.0 (Windows NT 10.0; Win64; x64) AppleWebKit/537.36 (KHTML, like Gecko) Chrome/99.0.4844.84 Safari/537.36" etag="wOxPTa9uj15MDkjeo533" version="17.1.2" type="github">
  <diagram id="_FJ-JabPY4izTHf_EG8k" name="Page-1">
    <mxGraphModel dx="782" dy="706" grid="1" gridSize="10" guides="1" tooltips="1" connect="1" arrows="1" fold="1" page="1" pageScale="1" pageWidth="827" pageHeight="1169" math="0" shadow="0">
      <root>
        <mxCell id="0" />
        <mxCell id="1" parent="0" />
        <mxCell id="ahKx2-L9J8DHlfLmC2CZ-2" value="" style="shape=image;html=1;verticalAlign=top;verticalLabelPosition=bottom;labelBackgroundColor=#ffffff;imageAspect=0;aspect=fixed;image=https://cdn4.iconfinder.com/data/icons/evil-icons-user-interface/64/location-128.png" vertex="1" parent="1">
          <mxGeometry x="260" y="250" width="60" height="60" as="geometry" />
        </mxCell>
        <mxCell id="ahKx2-L9J8DHlfLmC2CZ-3" value="HEP Bhopal" style="text;html=1;align=center;verticalAlign=middle;resizable=0;points=[];autosize=1;strokeColor=none;fillColor=none;" vertex="1" parent="1">
          <mxGeometry x="250" y="300" width="80" height="20" as="geometry" />
        </mxCell>
        <mxCell id="ahKx2-L9J8DHlfLmC2CZ-4" value="" style="shape=image;html=1;verticalAlign=top;verticalLabelPosition=bottom;labelBackgroundColor=#ffffff;imageAspect=0;aspect=fixed;image=https://cdn4.iconfinder.com/data/icons/evil-icons-user-interface/64/location-128.png" vertex="1" parent="1">
          <mxGeometry x="430" y="100" width="60" height="60" as="geometry" />
        </mxCell>
        <mxCell id="ahKx2-L9J8DHlfLmC2CZ-5" value="HERP Varanasi" style="text;html=1;align=center;verticalAlign=middle;resizable=0;points=[];autosize=1;strokeColor=none;fillColor=none;" vertex="1" parent="1">
          <mxGeometry x="410" y="150" width="100" height="20" as="geometry" />
        </mxCell>
        <mxCell id="ahKx2-L9J8DHlfLmC2CZ-6" value="" style="shape=image;html=1;verticalAlign=top;verticalLabelPosition=bottom;labelBackgroundColor=#ffffff;imageAspect=0;aspect=fixed;image=https://cdn4.iconfinder.com/data/icons/evil-icons-user-interface/64/location-128.png" vertex="1" parent="1">
          <mxGeometry x="370" y="520" width="60" height="60" as="geometry" />
        </mxCell>
        <mxCell id="ahKx2-L9J8DHlfLmC2CZ-7" value="HPEP Hyderabad" style="text;html=1;align=center;verticalAlign=middle;resizable=0;points=[];autosize=1;strokeColor=none;fillColor=none;" vertex="1" parent="1">
          <mxGeometry x="345" y="575" width="110" height="20" as="geometry" />
        </mxCell>
        <mxCell id="ahKx2-L9J8DHlfLmC2CZ-8" value="" style="shape=image;html=1;verticalAlign=top;verticalLabelPosition=bottom;labelBackgroundColor=#ffffff;imageAspect=0;aspect=fixed;image=https://cdn4.iconfinder.com/data/icons/evil-icons-user-interface/64/location-128.png" vertex="1" parent="1">
          <mxGeometry x="414" y="670" width="60" height="60" as="geometry" />
        </mxCell>
        <mxCell id="ahKx2-L9J8DHlfLmC2CZ-9" value="BAP Ranipet" style="text;html=1;align=center;verticalAlign=middle;resizable=0;points=[];autosize=1;strokeColor=none;fillColor=none;" vertex="1" parent="1">
          <mxGeometry x="404" y="730" width="80" height="20" as="geometry" />
        </mxCell>
        <mxCell id="ahKx2-L9J8DHlfLmC2CZ-10" value="" style="shape=image;html=1;verticalAlign=top;verticalLabelPosition=bottom;labelBackgroundColor=#ffffff;imageAspect=0;aspect=fixed;image=https://cdn4.iconfinder.com/data/icons/evil-icons-user-interface/64/location-128.png" vertex="1" parent="1">
          <mxGeometry x="384" y="810" width="60" height="60" as="geometry" />
        </mxCell>
        <mxCell id="ahKx2-L9J8DHlfLmC2CZ-11" value="HPBP Trichy" style="text;html=1;align=center;verticalAlign=middle;resizable=0;points=[];autosize=1;strokeColor=none;fillColor=none;" vertex="1" parent="1">
          <mxGeometry x="374" y="860" width="80" height="20" as="geometry" />
        </mxCell>
      </root>
    </mxGraphModel>
  </diagram>
</mxfile>
